<?xml version="1.0" standalone="no"?>
<!DOCTYPE svg PUBLIC "-//W3C//DTD SVG 20010904//EN" "http://www.w3.org/TR/2001/REC-SVG-20010904/DTD/svg10.dtd">
<!-- Created using Krita: https://krita.org -->
<svg xmlns="http://www.w3.org/2000/svg" 
    xmlns:xlink="http://www.w3.org/1999/xlink"
    xmlns:krita="http://krita.org/namespaces/svg/krita"
    xmlns:sodipodi="http://sodipodi.sourceforge.net/DTD/sodipodi-0.dtd"
    width="120pt"
    height="120pt"
    viewBox="0 0 120 120">
<defs/>
<g id="group0" transform="translate(9.65087905828811, 16.196406593663)" fill="none">
  <g id="group01" transform="translate(-1.53914635632191e-05, 5.32907051820075e-15)" fill="none">
   <path id="shape0" transform="matrix(0.866952156445008 0.498391370747304 -0.498391370747304 0.866952156445008 35.2275136151728 0.0602959344204379)" fill="#d31616" fill-rule="evenodd" stroke="#d31616" stroke-width="0.36" stroke-linecap="square" stroke-linejoin="bevel" d="M17.36 0L0 35.3447L17.3668 70.6824L34.72 35.3447L17.36 0" sodipodi:nodetypes="ccccc"/>
   <path id="shape01" transform="matrix(-0.00369118296699562 -0.999993187560958 0.999993187560958 -0.00369118296699562 15.1771919103892 87.4718282551991)" fill="#d31616" fill-rule="evenodd" stroke="#d31616" stroke-width="0.36" stroke-linecap="square" stroke-linejoin="bevel" d="M17.36 0L0 35.3447L17.3668 70.6824L34.72 35.3447L17.36 0" sodipodi:nodetypes="ccccc"/>
   <path id="shape02" transform="matrix(-0.866952156445008 0.498391370747304 0.498391370747304 0.866952156445008 65.4707590511781 -5.32907051820075e-15)" fill="#d31616" fill-rule="evenodd" stroke="#d31616" stroke-width="0.36" stroke-linecap="square" stroke-linejoin="bevel" d="M17.36 0L0 35.3447L17.3668 70.6824L34.72 35.3447L17.36 0" sodipodi:nodetypes="ccccc"/>
  </g>
  <path id="shape03" transform="translate(50.4318587572744, 8.43341219062181)" fill="none" stroke="#000000" stroke-width="0.72" stroke-linecap="square" stroke-linejoin="miter" stroke-miterlimit="2" d="M0 0L32.8725 22.0725" sodipodi:nodetypes="cc"/>
  <path id="shape1" transform="translate(83.3868528143485, 30.6259093364029)" fill="none" stroke="#000000" stroke-width="0.72" stroke-linecap="square" stroke-linejoin="miter" stroke-miterlimit="2" d="M0 0L2.53125 39.465" sodipodi:nodetypes="cc"/>
  <path id="shape2" transform="translate(50.5424837565982, 70.197786812674)" fill="none" stroke="#000000" stroke-width="0.72" stroke-linecap="square" stroke-linejoin="miter" stroke-miterlimit="2" d="M35.2125 0L0 17.4094" sodipodi:nodetypes="cc"/>
  <path id="shape3" transform="translate(14.8668581463252, 70.3159092698878)" fill="none" stroke="#000000" stroke-width="0.72" stroke-linecap="square" stroke-linejoin="miter" stroke-miterlimit="2" d="M35.385 17.22L0 0" sodipodi:nodetypes="cc"/>
  <path id="shape4" transform="translate(14.7693581498278, 30.4984107001931)" fill="none" stroke="#000000" stroke-width="0.72" stroke-linecap="square" stroke-linejoin="miter" stroke-miterlimit="2" d="M0 39.615L2.55 0" sodipodi:nodetypes="cc"/>
  <path id="shape5" transform="translate(17.4168571501515, 8.42966079522641)" fill="none" stroke="#000000" stroke-width="0.72" stroke-linecap="square" stroke-linejoin="miter" stroke-miterlimit="2" d="M0 21.7912L32.8162 0" sodipodi:nodetypes="cc"/>
 </g>
</svg>
