<?xml version="1.0" standalone="no"?>
<!DOCTYPE svg PUBLIC "-//W3C//DTD SVG 20010904//EN" "http://www.w3.org/TR/2001/REC-SVG-20010904/DTD/svg10.dtd">
<!-- Created using Krita: https://krita.org -->
<svg xmlns="http://www.w3.org/2000/svg" 
    xmlns:xlink="http://www.w3.org/1999/xlink"
    xmlns:krita="http://krita.org/namespaces/svg/krita"
    xmlns:sodipodi="http://sodipodi.sourceforge.net/DTD/sodipodi-0.dtd"
    width="240pt"
    height="240pt"
    viewBox="0 0 240 240">
<defs/>
<g id="group0" transform="translate(11.3127002804246, 3.13331351583618)" fill="none">
  <g id="group1" transform="matrix(0.580742382499079 0.339190387537115 -0.475521105038144 0.814160039951691 84.3447977796402 3.5527136788005e-15)" fill="none">
   <path id="shape0" transform="translate(26.367433833158, 0)" fill="#b22c37" fill-rule="evenodd" stroke="#b22c37" stroke-width="0.72" stroke-linecap="square" stroke-linejoin="bevel" d="M24.2028 0L0 43.0867L24.2028 86.1734L48.4056 43.0867L24.2028 0" sodipodi:nodetypes="ccccc"/>
   <path id="shape01" transform="translate(52.6474401278261, 45.360005451748)" fill="#b22c37" fill-rule="evenodd" stroke="#b22c37" stroke-width="0.72" stroke-linecap="square" stroke-linejoin="bevel" d="M24.2028 0L0 43.0867L24.2028 86.1734L48.4056 43.0867L24.2028 0" sodipodi:nodetypes="ccccc"/>
   <path id="shape02" transform="translate(0, 45.1800054543498)" fill="#b22c37" fill-rule="evenodd" stroke="#b22c37" stroke-width="0.72" stroke-linecap="square" stroke-linejoin="bevel" d="M24.2028 0L0 43.0867L24.2028 86.1734L48.4056 43.0867L24.2028 0" sodipodi:nodetypes="ccccc"/>
   <path id="shape03" transform="translate(26.3674396751238, 91.2000054829688)" fill="#b22c37" fill-rule="evenodd" stroke="#b22c37" stroke-width="0.72" stroke-linecap="square" stroke-linejoin="bevel" d="M24.2028 0L0 43.0867L24.2028 86.1734L48.4056 43.0867L24.2028 0" sodipodi:nodetypes="ccccc"/>
  </g>
  <g id="group01" transform="matrix(-0.580740053785293 0.339194374596247 0.475526694615073 0.814156775258488 142.628810217216 8.80826524323197e-05)" fill="none">
   <path id="shape04" transform="translate(26.367433833158, -7.105427357601e-15)" fill="#b22c37" fill-rule="evenodd" stroke="#b22c37" stroke-width="0.72" stroke-linecap="square" stroke-linejoin="bevel" d="M24.2028 0L0 43.0867L24.2028 86.1734L48.4056 43.0867L24.2028 0" sodipodi:nodetypes="ccccc"/>
   <path id="shape011" transform="translate(52.6474401278261, 45.360005451748)" fill="#b22c37" fill-rule="evenodd" stroke="#b22c37" stroke-width="0.72" stroke-linecap="square" stroke-linejoin="bevel" d="M24.2028 0L0 43.0867L24.2028 86.1734L48.4056 43.0867L24.2028 0" sodipodi:nodetypes="ccccc"/>
   <path id="shape021" transform="translate(-1.4210854715202e-14, 45.1800054543498)" fill="#b22c37" fill-rule="evenodd" stroke="#b22c37" stroke-width="0.72" stroke-linecap="square" stroke-linejoin="bevel" d="M24.2028 0L0 43.0867L24.2028 86.1734L48.4056 43.0867L24.2028 0" sodipodi:nodetypes="ccccc"/>
   <path id="shape031" transform="translate(26.3674396751238, 91.2000054829688)" fill="#b22c37" fill-rule="evenodd" stroke="#b22c37" stroke-width="0.72" stroke-linecap="square" stroke-linejoin="bevel" d="M24.2028 0L0 43.0867L24.2028 86.1734L48.4056 43.0867L24.2028 0" sodipodi:nodetypes="ccccc"/>
  </g>
  <g id="group02" transform="matrix(7.08612788419315e-05 0.672541321263584 -0.947035122860815 9.97828948095958e-05 197.674114157715 127.353329011196)" fill="none">
   <path id="shape05" transform="translate(26.367433833158, -7.105427357601e-15)" fill="#b22c37" fill-rule="evenodd" stroke="#b22c37" stroke-width="0.72" stroke-linecap="square" stroke-linejoin="bevel" d="M24.2028 0L0 43.0867L24.2028 86.1734L48.4056 43.0867L24.2028 0" sodipodi:nodetypes="ccccc"/>
   <path id="shape012" transform="translate(52.6474401278261, 45.360005451748)" fill="#b22c37" fill-rule="evenodd" stroke="#b22c37" stroke-width="0.72" stroke-linecap="square" stroke-linejoin="bevel" d="M24.2028 0L0 43.0867L24.2028 86.1734L48.4056 43.0867L24.2028 0" sodipodi:nodetypes="ccccc"/>
   <path id="shape022" transform="translate(-1.4210854715202e-14, 45.1800054543498)" fill="#b22c37" fill-rule="evenodd" stroke="#b22c37" stroke-width="0.72" stroke-linecap="square" stroke-linejoin="bevel" d="M24.2028 0L0 43.0867L24.2028 86.1734L48.4056 43.0867L24.2028 0" sodipodi:nodetypes="ccccc"/>
   <path id="shape032" transform="translate(26.3674396751238, 91.2000054829688)" fill="#b22c37" fill-rule="evenodd" stroke="#b22c37" stroke-width="0.72" stroke-linecap="square" stroke-linejoin="bevel" d="M24.2028 0L0 43.0867L24.2028 86.1734L48.4056 43.0867L24.2028 0" sodipodi:nodetypes="ccccc"/>
  </g>
 </g><path id="shape1" transform="translate(124.8, 20.8799996981997)" fill="none" stroke="#000000" stroke-width="1.44" stroke-linecap="square" stroke-linejoin="miter" stroke-miterlimit="2" d="M0 0L72 54.36" sodipodi:nodetypes="cc"/><path id="shape2" transform="translate(196.8, 75.3599989107438)" fill="none" stroke="#000000" stroke-width="1.44" stroke-linecap="square" stroke-linejoin="miter" stroke-miterlimit="2" d="M0 0L12.72 89.16" sodipodi:nodetypes="cc"/><path id="shape3" transform="translate(124.8, 164.744992708987)" fill="none" stroke="#000000" stroke-width="1.44" stroke-linecap="square" stroke-linejoin="miter" stroke-miterlimit="2" d="M0 34.11L84.63 0" sodipodi:nodetypes="cc"/><path id="shape4" transform="translate(40.4099970072894, 164.744987799205)" fill="none" stroke="#000000" stroke-width="1.44" stroke-linecap="square" stroke-linejoin="miter" stroke-miterlimit="2" d="M84.39 34.245L0 0" sodipodi:nodetypes="cc"/><path id="shape5" transform="translate(40.2599970183983, 75.1199944367133)" fill="none" stroke="#000000" stroke-width="1.44" stroke-linecap="square" stroke-linejoin="miter" stroke-miterlimit="2" d="M0 89.52L12.54 0" sodipodi:nodetypes="cc"/><path id="shape6" transform="translate(52.8, 20.609998473651)" fill="none" stroke="#000000" stroke-width="1.44" stroke-linecap="square" stroke-linejoin="miter" stroke-miterlimit="2" d="M72 0L0 54.36" sodipodi:nodetypes="cc"/><g id="group2" transform="translate(42.7499981080428, 24)" fill="#000000">
  <path id="shape7" transform="translate(82.0500018919572, 0)" fill="none" stroke="#000000" stroke-width="0.96" stroke-linecap="square" stroke-linejoin="miter" stroke-miterlimit="2" d="M0 0L11.955 85.305" sodipodi:nodetypes="cc"/>
  <path id="shape8" transform="translate(70.1099935336982, 1.33499812372414)" fill="none" stroke="#000000" stroke-width="0.96" stroke-linecap="square" stroke-linejoin="miter" stroke-miterlimit="2" d="M11.94 0L0 84.24" sodipodi:nodetypes="cc"/>
  <path id="shape9" transform="translate(94.2899917429611, 85.9499918572525)" fill="none" stroke="#000000" stroke-width="0.96" stroke-linecap="square" stroke-linejoin="miter" stroke-miterlimit="2" d="M0 0L69.36 53.25" sodipodi:nodetypes="cc"/>
  <path id="shape10" transform="translate(82.70999633956, 106.162494239487)" fill="none" stroke="#000000" stroke-width="0.96" stroke-linecap="square" stroke-linejoin="miter" stroke-miterlimit="2" d="M0 0L80.28 32.625" sodipodi:nodetypes="cc"/>
  <path id="shape11" transform="translate(0, 106.049994244467)" fill="none" stroke="#000000" stroke-width="0.96" stroke-linecap="square" stroke-linejoin="miter" stroke-miterlimit="2" d="M82.05 0L0 33.48" sodipodi:nodetypes="cc"/>
  <path id="shape12" transform="translate(0.697501263967801, 86.0249984097005)" fill="none" stroke="#000000" stroke-width="0.96" stroke-linecap="square" stroke-linejoin="miter" stroke-miterlimit="2" d="M69.12 0L0 53.175" sodipodi:nodetypes="cc"/>
 </g><path id="shape13" transform="translate(43.2, 26.6399996149462)" fill="#000000" fill-rule="evenodd" stroke="#000000" stroke-width="0.96" stroke-linecap="square" stroke-linejoin="bevel" d="M81.6 0L69.84 83.76L0 136.56L81.6 102.96L158.4 134.64L160.38 134.64L93.24 83.76L81.6 2.16" sodipodi:nodetypes="cccccccc"/>
</svg>
